<mxfile host="app.diagrams.net" modified="2024-01-27T10:26:59.920Z" agent="Mozilla/5.0 (Windows NT 10.0; Win64; x64) AppleWebKit/537.36 (KHTML, like Gecko) Chrome/120.0.0.0 Safari/537.36" version="23.0.2" etag="VOuCBYyln71bZ6Si0paA" type="github">
  <diagram name="Страница — 1" id="_kxAwU5htmI1iYf8kWKG">
    <mxGraphModel>
      <root>
        <mxCell id="0" />
        <mxCell id="1" parent="0" />
      </root>
    </mxGraphModel>
  </diagram>
</mxfile>
